<?xml version="1.0" encoding="utf-8"?>
<!-- Generator: Adobe Illustrator 14.0.0, SVG Export Plug-In  -->
<!DOCTYPE svg PUBLIC "-//W3C//DTD SVG 1.1 Tiny//EN" "http://www.w3.org/Graphics/SVG/1.1/DTD/svg11-tiny.dtd" [
	<!ENTITY ns_flows "http://ns.adobe.com/Flows/1.0/">
]>
<svg version="1.1" baseProfile="tiny"
	 xmlns="http://www.w3.org/2000/svg" xmlns:xlink="http://www.w3.org/1999/xlink" xmlns:a="http://ns.adobe.com/AdobeSVGViewerExtensions/3.0/"
	 x="0px" y="0px" width="33px" height="27px" viewBox="-0.706 -0.733 33 27" xml:space="preserve">
<defs>
</defs>
<path fill="#FFFFFF" stroke="#FFFFFF" d="M5.936,10.474h-0.28l0.49-2.143c-0.505,1.331-1.527,2.367-3.082,2.367
	c-1.61,0-2.563-1.037-2.563-2.773c0-2.213,1.303-4.833,3.811-4.833c1.526,0,2.353,0.91,2.437,2.339L7.771,0.5H8.05L5.936,10.474z
	 M0.767,7.882c0,1.639,0.854,2.577,2.339,2.577c2.297,0,3.446-2.843,3.446-4.776c0-1.415-0.841-2.339-2.256-2.339
	C1.971,3.344,0.767,5.837,0.767,7.882z"/>
<path fill="#FFFFFF" stroke="#FFFFFF" d="M10.749,10.684c-1.751,0-2.76-1.079-2.76-2.941c0-2.241,1.275-4.637,3.797-4.637
	c1.681,0,2.675,1.121,2.675,2.788C14.461,8.078,13.271,10.684,10.749,10.684z M8.27,7.756c0,1.695,0.911,2.675,2.466,2.675
	c2.381,0,3.445-2.535,3.445-4.566c0-1.499-0.91-2.494-2.423-2.494C9.433,3.372,8.27,5.655,8.27,7.756z"/>
<polygon fill="#FFFFFF" stroke="#FFFFFF" points="21.378,10.474 21.027,10.474 20.231,3.794 20.051,3.823 16.531,10.474 
	16.139,10.474 15.313,3.302 15.606,3.302 16.342,10.042 16.475,10.024 20.019,3.302 20.439,3.302 21.222,9.973 21.376,10 
	24.907,3.302 25.216,3.302 "/>
<path fill="#FFFFFF" stroke="#FFFFFF" d="M25.925,5.025c0.616-1.065,1.526-1.891,2.97-1.891c1.232,0,2.087,0.7,2.087,1.961
	c0,0.378-0.07,0.645-0.224,1.387l-0.841,3.992h-0.294l0.882-4.118c0.07-0.35,0.196-0.967,0.196-1.345
	c0-0.995-0.714-1.625-1.849-1.625c-2.102,0-3.012,1.989-3.25,3.152l-0.826,3.936h-0.294l1.526-7.172h0.28L25.925,5.025z"/>
<polygon fill="#FFFFFF" stroke="#FFFFFF" points="16.205,25.308 16.804,25.308 23.324,21.248 22.726,21.248 16.52,25.131 
	10.378,21.248 9.779,21.248 "/>
</svg>
