<?xml version="1.0" encoding="utf-8"?>
<!-- Generator: Adobe Illustrator 14.0.0, SVG Export Plug-In  -->
<!DOCTYPE svg PUBLIC "-//W3C//DTD SVG 1.1 Tiny//EN" "http://www.w3.org/Graphics/SVG/1.1/DTD/svg11-tiny.dtd" [
	<!ENTITY ns_flows "http://ns.adobe.com/Flows/1.0/">
]>
<svg version="1.1" baseProfile="tiny"
	 xmlns="http://www.w3.org/2000/svg" xmlns:xlink="http://www.w3.org/1999/xlink" xmlns:a="http://ns.adobe.com/AdobeSVGViewerExtensions/3.0/"
	 x="0px" y="0px" width="90px" height="78px" viewBox="-1.282 -1.521 90 78" xml:space="preserve">
<defs>
</defs>
<line fill="none" stroke="#FFFFFF" stroke-width="0.25" stroke-linecap="square" stroke-linejoin="bevel" stroke-miterlimit="10" x1="21.114" y1="21.442" x2="41.808" y2="62.052"/>
<line fill="none" stroke="#FFFFFF" stroke-width="0.25" stroke-miterlimit="10" x1="42.966" y1="0.069" x2="23.841" y2="28.784"/>
<line fill="none" stroke="#FFFFFF" stroke-width="0.25" stroke-linecap="square" stroke-linejoin="bevel" stroke-miterlimit="10" x1="56.94" y1="9.253" x2="30.463" y2="7.216"/>
<line fill="none" stroke="#FFFFFF" stroke-width="0.25" stroke-linecap="square" stroke-linejoin="bevel" stroke-miterlimit="10" x1="62.87" y1="10.688" x2="78.098" y2="38.52"/>
<line fill="none" stroke="#FFFFFF" stroke-width="0.25" stroke-linecap="square" stroke-linejoin="bevel" stroke-miterlimit="10" x1="75.013" y1="32.36" x2="87.886" y2="13.435"/>
<line fill="none" stroke="#FFFFFF" stroke-width="0.25" stroke-linecap="square" stroke-linejoin="bevel" stroke-miterlimit="10" x1="69.915" y1="40.777" x2="47.245" y2="75.274"/>
<line fill="none" stroke="#FFFFFF" stroke-width="0.25" stroke-linecap="square" stroke-linejoin="bevel" stroke-miterlimit="10" x1="68.704" y1="52.813" x2="0.132" y2="49.1"/>
<polygon fill="none" stroke="#FFFFFF" stroke-linecap="square" stroke-linejoin="bevel" stroke-miterlimit="10" points="
	68.421,42.95 68.31,42.743 74.909,32.702 75.207,32.725 75.067,32.461 75.128,32.368 75.013,32.36 69.161,21.333 69.194,21.28 
	69.13,21.276 69.1,21.218 69.065,21.271 56.475,20.263 56.411,20.144 56.444,20.091 56.38,20.085 56.35,20.028 56.323,20.069 
	50.478,9.054 50.512,9.003 50.446,8.997 50.416,8.94 50.382,8.991 37.765,7.983 37.652,7.771 30.773,18.237 30.798,18.241 
	36.801,29.553 29.998,39.906 30.024,39.908 36.057,51.279 36.023,51.332 36.088,51.335 36.118,51.394 36.152,51.341 48.964,52.366 
	48.966,52.37 48.968,52.368 49.009,52.37 48.989,52.335 55.759,42.035 55.864,42.045 55.815,41.951 55.821,41.941 "/>
<line fill="none" stroke="#FFFFFF" stroke-width="0.25" stroke-miterlimit="10" x1="50.382" y1="8.991" x2="36.152" y2="51.341"/>
<line fill="none" stroke="#FFFFFF" stroke-width="0.25" stroke-miterlimit="10" x1="50.416" y1="8.94" x2="55.813" y2="41.951"/>
<line fill="none" stroke="#FFFFFF" stroke-width="0.25" stroke-miterlimit="10" x1="50.416" y1="8.94" x2="49.009" y2="52.37"/>
<line fill="none" stroke="#FFFFFF" stroke-width="0.25" stroke-miterlimit="10" x1="69.065" y1="21.271" x2="56.179" y2="41.396"/>
<line fill="none" stroke="#FFFFFF" stroke-width="0.25" stroke-miterlimit="10" x1="69.161" y1="21.333" x2="68.31" y2="42.743"/>
<line fill="none" stroke="#FFFFFF" stroke-width="0.25" stroke-miterlimit="10" x1="37.652" y1="7.771" x2="68.31" y2="42.743"/>
<line fill="none" stroke="#FFFFFF" stroke-width="0.25" stroke-miterlimit="10" x1="48.989" y1="52.335" x2="37.765" y2="7.983"/>
<line fill="none" stroke="#FFFFFF" stroke-width="0.25" stroke-miterlimit="10" x1="30.798" y1="18.241" x2="68.421" y2="42.95"/>
<line fill="none" stroke="#FFFFFF" stroke-width="0.25" stroke-miterlimit="10" x1="36.801" y1="29.553" x2="67.57" y2="42.881"/>
<line fill="none" stroke="#FFFFFF" stroke-width="0.25" stroke-miterlimit="10" x1="69.161" y1="21.333" x2="36.802" y2="29.553"/>
<line fill="none" stroke="#FFFFFF" stroke-width="0.25" stroke-miterlimit="10" x1="69.161" y1="21.333" x2="30.023" y2="39.908"/>
<line fill="none" stroke="#FFFFFF" stroke-width="0.25" stroke-miterlimit="10" x1="69.161" y1="21.333" x2="36.336" y2="50.791"/>
<line fill="none" stroke="#FFFFFF" stroke-width="0.25" stroke-miterlimit="10" x1="50.101" y1="9.317" x2="30.798" y2="18.241"/>
<line fill="none" stroke="#FFFFFF" stroke-width="0.25" stroke-miterlimit="10" x1="56.476" y1="20.263" x2="30.023" y2="39.908"/>
<line fill="none" stroke="#FFFFFF" stroke-width="0.25" stroke-miterlimit="10" x1="30.023" y1="39.908" x2="48.417" y2="51.996"/>
</svg>
