<?xml version="1.0" encoding="utf-8"?>
<!-- Generator: Adobe Illustrator 14.0.0, SVG Export Plug-In  -->
<!DOCTYPE svg PUBLIC "-//W3C//DTD SVG 1.1 Tiny//EN" "http://www.w3.org/Graphics/SVG/1.1/DTD/svg11-tiny.dtd" [
	<!ENTITY ns_flows "http://ns.adobe.com/Flows/1.0/">
]>
<svg version="1.1" baseProfile="tiny"
	 xmlns="http://www.w3.org/2000/svg" xmlns:xlink="http://www.w3.org/1999/xlink" xmlns:a="http://ns.adobe.com/AdobeSVGViewerExtensions/3.0/"
	 x="0px" y="0px" width="234px" height="90px" viewBox="-3.2129 -1.7065 234 90" xml:space="preserve">
<defs>
</defs>
<path fill="#6A6863" d="M77.8911,27.186h-2.4912v8.8076h-1.0112V27.186h-2.4854v-1.0444h5.9878V27.186z"/>
<path fill="#6A6863" d="M85.9243,35.9937h-1.1196l-0.9146-2.7622h-3.6582l-0.8604,2.7622h-1.126l3.3096-9.8521h1.0474
	L85.9243,35.9937z M83.5596,32.1943l-1.3545-4.1978c-0.0439-0.1372-0.0879-0.3574-0.1318-0.6592h-0.0244
	c-0.04,0.2793-0.0864,0.499-0.1382,0.6592l-1.3418,4.1978H83.5596z"/>
<path fill="#6A6863" d="M93.0674,35.5815c-0.6382,0.3848-1.4326,0.5767-2.3833,0.5767c-1.2271,0-2.21-0.4512-2.9482-1.3535
	s-1.1074-2.0859-1.1074-3.5518c0-1.5752,0.415-2.8481,1.2456-3.8193c0.8301-0.9712,1.8838-1.4565,3.1592-1.4565
	c0.8184,0,1.4966,0.1353,2.0342,0.4053v1.2295c-0.6182-0.3936-1.2998-0.5908-2.0459-0.5908c-0.9912,0-1.7944,0.3784-2.4102,1.1338
	c-0.6162,0.7559-0.9238,1.7656-0.9238,3.0293c0,1.2007,0.2881,2.1567,0.8638,2.8687c0.5752,0.7124,1.3306,1.0684,2.2656,1.0684
	c0.8662,0,1.6167-0.2202,2.2505-0.6597V35.5815z"/>
<path fill="#6A6863" d="M99.9272,27.186H97.436v8.8076h-1.0112V27.186h-2.4854v-1.0444h5.9878V27.186z"/>
<path fill="#6A6863" d="M103.1343,26.1416v0.9897h-0.8428v7.8726h0.8428v0.9897h-2.6958v-0.9897h0.8423v-7.8726h-0.8423v-0.9897
	H103.1343z"/>
<path fill="#6A6863" d="M110.4336,35.5815c-0.6382,0.3848-1.4326,0.5767-2.3833,0.5767c-1.2271,0-2.21-0.4512-2.9482-1.3535
	s-1.1074-2.0859-1.1074-3.5518c0-1.5752,0.4155-2.8481,1.2456-3.8193c0.8306-0.9712,1.8838-1.4565,3.1592-1.4565
	c0.8188,0,1.4966,0.1353,2.0342,0.4053v1.2295c-0.6182-0.3936-1.2998-0.5908-2.0459-0.5908c-0.9907,0-1.7944,0.3784-2.4102,1.1338
	c-0.6157,0.7559-0.9238,1.7656-0.9238,3.0293c0,1.2007,0.2881,2.1567,0.8638,2.8687c0.5752,0.7124,1.3306,1.0684,2.2656,1.0684
	c0.8662,0,1.6167-0.2202,2.2505-0.6597V35.5815z"/>
<path fill="#6A6863" d="M118.8701,35.9937h-1.1196l-0.9146-2.7622h-3.6582l-0.8604,2.7622h-1.126l3.3096-9.8521h1.0474
	L118.8701,35.9937z M116.5049,32.1943l-1.354-4.1978c-0.0439-0.1372-0.0879-0.3574-0.1318-0.6592h-0.0244
	c-0.04,0.2793-0.0864,0.499-0.1387,0.6592l-1.3413,4.1978H116.5049z"/>
<path fill="#6A6863" d="M124.6162,35.9937h-4.4766v-9.8521h1.0107v8.8076h3.4658V35.9937z"/>
<path fill="#6A6863" d="M78.6616,52.4653c-0.6382,0.3848-1.4326,0.5762-2.3833,0.5762c-1.2275,0-2.2104-0.4512-2.9482-1.3535
	c-0.7383-0.9023-1.1074-2.0859-1.1074-3.5518c0-1.5742,0.415-2.8486,1.2456-3.8193c0.8301-0.9707,1.8833-1.4565,3.1592-1.4565
	c0.8184,0,1.4966,0.1353,2.0342,0.4058v1.2285c-0.6182-0.3926-1.2998-0.5908-2.0459-0.5908c-0.9912,0-1.7944,0.3779-2.4102,1.1348
	c-0.6162,0.7559-0.9238,1.7656-0.9238,3.0293c0,1.2012,0.2881,2.1572,0.8638,2.8682c0.5752,0.7129,1.3306,1.0684,2.2656,1.0684
	c0.8662,0,1.6167-0.2197,2.2505-0.6592V52.4653z"/>
<path fill="#6A6863" d="M83.8965,53.0415c-1.2231,0-2.2036-0.46-2.9395-1.3809c-0.7363-0.9199-1.1045-2.1182-1.1045-3.5928
	c0-1.585,0.375-2.8486,1.1255-3.792c0.7505-0.9438,1.7715-1.4155,3.063-1.4155c1.1914,0,2.1514,0.458,2.8794,1.3745
	c0.728,0.915,1.0923,2.1143,1.0923,3.5918c0,1.6084-0.3735,2.8789-1.1196,3.8135S85.1479,53.0415,83.8965,53.0415z M83.9688,43.9038
	c-0.9067,0-1.6426,0.374-2.208,1.1211c-0.5664,0.7461-0.8486,1.7256-0.8486,2.9395s0.2754,2.1914,0.8271,2.9307
	c0.5513,0.7393,1.2705,1.1094,2.1572,1.1094c0.9468,0,1.6934-0.3535,2.2383-1.0576c0.5459-0.7051,0.8184-1.6934,0.8184-2.9609
	c0-1.3018-0.2646-2.3057-0.7939-3.0166C85.6294,44.2593,84.8994,43.9038,83.9688,43.9038z"/>
<path fill="#6A6863" d="M98.5073,52.8774H97.502v-6.6104c0-0.5215,0.0283-1.1602,0.084-1.916h-0.0234
	c-0.0967,0.4443-0.1826,0.7627-0.2593,0.9561l-2.9487,7.5703h-0.4927l-2.9429-7.5166c-0.0845-0.2197-0.1704-0.5566-0.2588-1.0098
	h-0.0239c0.0317,0.3945,0.0479,1.0371,0.0479,1.9316v6.5947h-0.9746v-9.8521h1.3354l2.6479,6.8706
	c0.2046,0.5264,0.3369,0.9199,0.397,1.1816h0.0366c0.1724-0.541,0.3105-0.9443,0.415-1.21l2.7017-6.8423h1.2642V52.8774z"/>
<path fill="#6A6863" d="M109.5732,52.8774h-1.0049v-6.6104c0-0.5215,0.0278-1.1602,0.0835-1.916h-0.0234
	c-0.0967,0.4443-0.1826,0.7627-0.2588,0.9561l-2.9487,7.5703h-0.4932l-2.9429-7.5166c-0.0845-0.2197-0.1704-0.5566-0.2588-1.0098
	h-0.0239c0.0317,0.3945,0.0479,1.0371,0.0479,1.9316v6.5947h-0.9746v-9.8521h1.3359l2.6479,6.8706
	c0.2046,0.5264,0.3364,0.9199,0.3965,1.1816h0.0366c0.1724-0.541,0.3105-0.9443,0.4155-1.21l2.7017-6.8423h1.2637V52.8774z"/>
<path fill="#6A6863" d="M118.1538,48.8931c0,2.7656-1.0933,4.1484-3.2793,4.1484c-2.0942,0-3.1411-1.3301-3.1411-3.9912v-6.0249
	h1.0107v5.9487c0,2.0195,0.7461,3.0303,2.2383,3.0303c1.4404,0,2.1602-0.9766,2.1602-2.9268v-6.0522h1.0112V48.8931z"/>
<path fill="#6A6863" d="M127.2646,52.8774h-1.2402l-4.4404-7.8525c-0.1123-0.1973-0.2051-0.4033-0.2773-0.6182h-0.0361
	c0.0322,0.2109,0.0479,0.6621,0.0479,1.3535v7.1172h-1.0107v-9.8521h1.3125l4.3213,7.729c0.1797,0.3213,0.2959,0.54,0.3477,0.6592
	h0.0234c-0.0391-0.2842-0.0596-0.7676-0.0596-1.4492v-6.939h1.0117V52.8774z"/>
<path fill="#6A6863" d="M131.3809,43.0254v0.9897h-0.8428v7.8721h0.8428v0.9902h-2.6963v-0.9902h0.8418v-7.8721h-0.8418v-0.9897
	H131.3809z"/>
<path fill="#6A6863" d="M138.6787,52.4653c-0.6377,0.3848-1.4316,0.5762-2.3818,0.5762c-1.2275,0-2.2109-0.4512-2.9482-1.3535
	c-0.7393-0.9023-1.1084-2.0859-1.1084-3.5518c0-1.5742,0.416-2.8486,1.2461-3.8193s1.8838-1.4565,3.1592-1.4565
	c0.8184,0,1.4961,0.1353,2.0332,0.4058v1.2285c-0.6172-0.3926-1.2998-0.5908-2.0449-0.5908c-0.9902,0-1.7939,0.3779-2.4102,1.1348
	c-0.6162,0.7559-0.9238,1.7656-0.9238,3.0293c0,1.2012,0.2871,2.1572,0.8633,2.8682c0.5762,0.7129,1.3311,1.0684,2.2666,1.0684
	c0.8662,0,1.6152-0.2197,2.249-0.6592V52.4653z"/>
<path fill="#6A6863" d="M147.1162,52.8774h-1.1191l-0.916-2.7627h-3.6572l-0.8604,2.7627h-1.126l3.3096-9.8521h1.0479
	L147.1162,52.8774z M144.751,49.0776l-1.3535-4.1982c-0.0439-0.1367-0.0889-0.3564-0.1328-0.6582h-0.0244
	c-0.04,0.2793-0.0859,0.499-0.1377,0.6582l-1.3428,4.1982H144.751z"/>
<path fill="#6A6863" d="M153.4883,44.0698h-2.4912v8.8076h-1.0107v-8.8076h-2.4854v-1.0444h5.9873V44.0698z"/>
<path fill="#6A6863" d="M156.6963,43.0254v0.9897h-0.8438v7.8721h0.8438v0.9902H154v-0.9902h0.8418v-7.8721H154v-0.9897H156.6963z"
	/>
<path fill="#6A6863" d="M161.5996,53.0415c-1.2236,0-2.2031-0.46-2.9404-1.3809c-0.7354-0.9199-1.1035-2.1182-1.1035-3.5928
	c0-1.585,0.376-2.8486,1.125-3.792c0.75-0.9438,1.7715-1.4155,3.0645-1.4155c1.1895,0,2.1504,0.458,2.8789,1.3745
	c0.7275,0.915,1.0908,2.1143,1.0908,3.5918c0,1.6084-0.3721,2.8789-1.1191,3.8135
	C163.8506,52.5747,162.8516,53.0415,161.5996,53.0415z M161.6719,43.9038c-0.9072,0-1.6426,0.374-2.209,1.1211
	c-0.5645,0.7461-0.8486,1.7256-0.8486,2.9395s0.2764,2.1914,0.8271,2.9307c0.5527,0.7393,1.2725,1.1094,2.1582,1.1094
	c0.9463,0,1.6934-0.3535,2.2373-1.0576c0.5459-0.7051,0.8193-1.6934,0.8193-2.9609c0-1.3018-0.2646-2.3057-0.7939-3.0166
	C163.332,44.2593,162.6016,43.9038,161.6719,43.9038z"/>
<path fill="#6A6863" d="M174.3691,52.8774h-1.2402l-4.4404-7.8525c-0.1123-0.1973-0.2051-0.4033-0.2773-0.6182h-0.0361
	c0.0322,0.2109,0.0479,0.6621,0.0479,1.3535v7.1172h-1.0107v-9.8521h1.3125l4.3213,7.729c0.1797,0.3213,0.2959,0.54,0.3477,0.6592
	h0.0234c-0.0391-0.2842-0.0596-0.7676-0.0596-1.4492v-6.939h1.0117V52.8774z"/>
<path fill="#6A6863" d="M179.6045,52.478v-1.3594c0.1357,0.1377,0.2988,0.2607,0.4902,0.3701
	c0.1904,0.1113,0.3906,0.2031,0.6016,0.2783c0.21,0.0752,0.4219,0.1348,0.6348,0.1758s0.4092,0.0615,0.5898,0.0615
	c0.6221,0,1.0859-0.1318,1.3936-0.3945c0.3057-0.2637,0.46-0.6426,0.46-1.1377c0-0.2646-0.0508-0.4971-0.1543-0.6943
	c-0.1016-0.1953-0.2432-0.376-0.4229-0.5391c-0.1807-0.1611-0.3955-0.3184-0.6416-0.4668s-0.5127-0.3057-0.7979-0.4697
	c-0.3008-0.1748-0.5811-0.3506-0.8428-0.5303c-0.2598-0.1777-0.4873-0.375-0.6787-0.5908c-0.1934-0.2148-0.3447-0.458-0.4551-0.7314
	c-0.1104-0.2725-0.166-0.5918-0.166-0.958c0-0.4492,0.0869-0.8398,0.2598-1.1709c0.1719-0.333,0.3994-0.6055,0.6797-0.8213
	c0.2813-0.2153,0.6016-0.376,0.96-0.481c0.3584-0.1055,0.7256-0.1582,1.0977-0.1582c0.8506,0,1.4707,0.1167,1.8594,0.3501v1.2998
	c-0.5088-0.4043-1.1631-0.6064-1.9609-0.6064c-0.2207,0-0.4414,0.0273-0.6631,0.0801c-0.2188,0.0527-0.417,0.1387-0.5889,0.2578
	c-0.1729,0.1191-0.3135,0.2725-0.4209,0.459c-0.1084,0.1895-0.1631,0.417-0.1631,0.6875c0,0.252,0.041,0.4697,0.123,0.6533
	c0.083,0.1826,0.2031,0.3506,0.3643,0.501c0.1611,0.1514,0.3564,0.2988,0.5869,0.4404s0.4961,0.2979,0.7969,0.4658
	c0.3096,0.1738,0.6016,0.3584,0.8789,0.5498c0.2773,0.1934,0.5195,0.4063,0.7285,0.6396c0.208,0.2334,0.373,0.4932,0.4961,0.7764
	c0.1221,0.2842,0.1836,0.6094,0.1836,0.9756c0,0.4854-0.083,0.8955-0.25,1.2334c-0.166,0.3359-0.3916,0.6104-0.6729,0.8203
	c-0.2832,0.2109-0.6104,0.3633-0.9785,0.458c-0.3682,0.0918-0.7588,0.1396-1.168,0.1396c-0.1348,0-0.3047-0.0127-0.5049-0.0371
	c-0.2002-0.0254-0.4063-0.0615-0.6143-0.1104c-0.208-0.0479-0.4063-0.1074-0.5928-0.1797
	C179.8662,52.644,179.7168,52.5659,179.6045,52.478z"/>
<path fill="#6A6863" d="M192.1621,43.0254l-2.8467,6.2114v3.6406h-1.0107v-3.6143l-2.7734-6.2378h1.1494l1.9316,4.4517
	c0.0244,0.0557,0.0928,0.2568,0.21,0.6045h0.0186c0.04-0.1553,0.1162-0.3574,0.2275-0.6045l2.0234-4.4517H192.1621z"/>
<path fill="#6A6863" d="M192.9629,52.478v-1.3594c0.1357,0.1377,0.2998,0.2607,0.4902,0.3701
	c0.1895,0.1113,0.3916,0.2031,0.6016,0.2783c0.2109,0.0752,0.4219,0.1348,0.6338,0.1758c0.2129,0.041,0.4111,0.0615,0.5908,0.0615
	c0.6211,0,1.085-0.1318,1.3926-0.3945c0.3076-0.2637,0.4609-0.6426,0.4609-1.1377c0-0.2646-0.0518-0.4971-0.1533-0.6943
	c-0.1035-0.1953-0.2441-0.376-0.4248-0.5391c-0.1807-0.1611-0.3945-0.3184-0.6416-0.4668
	c-0.2451-0.1484-0.5107-0.3057-0.7969-0.4697c-0.3008-0.1748-0.582-0.3506-0.8418-0.5303c-0.2607-0.1777-0.4883-0.375-0.6797-0.5908
	c-0.1924-0.2148-0.3457-0.458-0.4551-0.7314c-0.1094-0.2725-0.165-0.5918-0.165-0.958c0-0.4492,0.0859-0.8398,0.2588-1.1709
	c0.1729-0.333,0.3984-0.6055,0.6797-0.8213c0.2803-0.2153,0.6006-0.376,0.9609-0.481c0.3584-0.1055,0.7236-0.1582,1.0977-0.1582
	c0.8506,0,1.4697,0.1167,1.8584,0.3501v1.2998c-0.5098-0.4043-1.1621-0.6064-1.9619-0.6064c-0.2197,0-0.4404,0.0273-0.6611,0.0801
	s-0.417,0.1387-0.5889,0.2578c-0.1738,0.1191-0.3135,0.2725-0.4219,0.459c-0.1094,0.1895-0.1631,0.417-0.1631,0.6875
	c0,0.252,0.041,0.4697,0.123,0.6533c0.083,0.1826,0.2041,0.3506,0.3652,0.501c0.1602,0.1514,0.3555,0.2988,0.5859,0.4404
	s0.4971,0.2979,0.7979,0.4658c0.3086,0.1738,0.6016,0.3584,0.8779,0.5498c0.2773,0.1934,0.5205,0.4063,0.7285,0.6396
	c0.209,0.2334,0.374,0.4932,0.4961,0.7764c0.123,0.2842,0.1826,0.6094,0.1826,0.9756c0,0.4854-0.082,0.8955-0.249,1.2334
	c-0.166,0.3359-0.3906,0.6104-0.6729,0.8203c-0.2832,0.2109-0.6094,0.3633-0.9795,0.458c-0.3682,0.0918-0.7578,0.1396-1.166,0.1396
	c-0.1367,0-0.3057-0.0127-0.5049-0.0371c-0.2021-0.0254-0.4063-0.0615-0.6143-0.1104c-0.209-0.0479-0.4063-0.1074-0.5938-0.1797
	C193.2236,52.644,193.0752,52.5659,192.9629,52.478z"/>
<path fill="#6A6863" d="M205.0166,44.0698h-2.4922v8.8076h-1.0107v-8.8076h-2.4854v-1.0444h5.9883V44.0698z"/>
<path fill="#6A6863" d="M210.9434,52.8774h-4.5732v-9.8521h4.3809v1.0444h-3.3711v3.2764h3.1172v1.0371h-3.1172v3.4492h3.5635
	V52.8774z"/>
<path fill="#6A6863" d="M221.4014,52.8774h-1.0039v-6.6104c0-0.5215,0.0273-1.1602,0.083-1.916h-0.0234
	c-0.0967,0.4443-0.1826,0.7627-0.2598,0.9561l-2.9473,7.5703h-0.4941l-2.9424-7.5166c-0.085-0.2197-0.1709-0.5566-0.2588-1.0098
	h-0.0244c0.0322,0.3945,0.0479,1.0371,0.0479,1.9316v6.5947h-0.9746v-9.8521h1.335l2.6494,6.8706
	c0.2041,0.5264,0.3359,0.9199,0.3965,1.1816h0.0361c0.1729-0.541,0.3105-0.9443,0.416-1.21l2.7002-6.8423h1.2646V52.8774z"/>
<path fill="#6A6863" d="M223.2676,52.478v-1.3594c0.1348,0.1377,0.2988,0.2607,0.4893,0.3701
	c0.1904,0.1113,0.3916,0.2031,0.6016,0.2783c0.2109,0.0752,0.4229,0.1348,0.6357,0.1758c0.2119,0.041,0.4092,0.0615,0.5889,0.0615
	c0.6221,0,1.0869-0.1318,1.3936-0.3945c0.3066-0.2637,0.4609-0.6426,0.4609-1.1377c0-0.2646-0.0518-0.4971-0.1543-0.6943
	c-0.1025-0.1953-0.2432-0.376-0.4238-0.5391c-0.1807-0.1611-0.3955-0.3184-0.6406-0.4668
	c-0.2461-0.1484-0.5127-0.3057-0.7988-0.4697c-0.3008-0.1748-0.5811-0.3506-0.8418-0.5303
	c-0.2598-0.1777-0.4883-0.375-0.6787-0.5908c-0.1934-0.2148-0.3447-0.458-0.4561-0.7314c-0.1094-0.2725-0.165-0.5918-0.165-0.958
	c0-0.4492,0.0869-0.8398,0.2598-1.1709c0.1719-0.333,0.3984-0.6055,0.6787-0.8213c0.2813-0.2153,0.6016-0.376,0.9609-0.481
	c0.3584-0.1055,0.7246-0.1582,1.0977-0.1582c0.8506,0,1.4707,0.1167,1.8594,0.3501v1.2998
	c-0.5088-0.4043-1.1631-0.6064-1.9619-0.6064c-0.2197,0-0.4414,0.0273-0.6621,0.0801c-0.2197,0.0527-0.417,0.1387-0.5889,0.2578
	c-0.1729,0.1191-0.3135,0.2725-0.4209,0.459c-0.1084,0.1895-0.1641,0.417-0.1641,0.6875c0,0.252,0.041,0.4697,0.124,0.6533
	c0.083,0.1826,0.2031,0.3506,0.3643,0.501c0.1611,0.1514,0.3564,0.2988,0.5859,0.4404c0.2314,0.1416,0.4971,0.2979,0.7979,0.4658
	c0.3086,0.1738,0.6016,0.3584,0.8779,0.5498c0.2773,0.1934,0.5205,0.4063,0.7285,0.6396c0.209,0.2334,0.374,0.4932,0.4961,0.7764
	c0.123,0.2842,0.1846,0.6094,0.1846,0.9756c0,0.4854-0.083,0.8955-0.251,1.2334c-0.165,0.3359-0.3906,0.6104-0.6719,0.8203
	c-0.2842,0.2109-0.6104,0.3633-0.9785,0.458c-0.3691,0.0918-0.7588,0.1396-1.168,0.1396c-0.1357,0-0.3057-0.0127-0.5049-0.0371
	c-0.2012-0.0254-0.4063-0.0615-0.6143-0.1104c-0.209-0.0479-0.4063-0.1074-0.5938-0.1797
	C223.5283,52.644,223.3789,52.5659,223.2676,52.478z"/>
<line fill="none" stroke="#A29F9A" stroke-width="0.25" stroke-miterlimit="10" x1="2.6426" y1="47.7007" x2="46.1997" y2="72.5317"/>
<line fill="none" stroke="#A29F9A" stroke-width="0.25" stroke-miterlimit="10" x1="9.8174" y1="14.8516" x2="9.5854" y2="52.8022"/>
<line fill="none" stroke="#A29F9A" stroke-width="0.25" stroke-miterlimit="10" x1="28.2124" y1="14.8516" x2="2.6426" y2="28.9736"/>
<line fill="none" stroke="#A29F9A" stroke-width="0.25" stroke-miterlimit="10" x1="34.5298" y1="12.5884" x2="65.3433" y2="28.9746"/>
<line fill="none" stroke="#A29F9A" stroke-width="0.25" stroke-miterlimit="10" x1="58.7847" y1="25.1748" x2="59.1855" y2="0.002"/>
<line fill="none" stroke="#A29F9A" stroke-width="0.25" stroke-miterlimit="10" x1="59.1846" y1="35.9937" x2="59.1846" y2="81.4019"/>
<line fill="none" stroke="#A29F9A" stroke-width="0.25" stroke-miterlimit="10" x1="65.3428" y1="47.7896" x2="0.063" y2="85.8032"/>
<polygon fill="none" stroke="#A29F9A" stroke-miterlimit="10" points="59.1226,38.8921 58.896,38.769 58.896,25.5527 
	59.1855,25.394 58.896,25.2363 58.896,25.1138 58.7847,25.1748 46.7441,18.5728 46.7441,18.5054 46.6802,18.5391 46.6187,18.5054 
	46.6187,18.5728 34.4365,25.2544 34.3042,25.1831 34.3042,25.1138 34.2412,25.1479 34.1802,25.1138 34.1802,25.1675 
	22.1519,18.5728 22.1519,18.5054 22.0889,18.5391 22.0259,18.5054 22.0259,18.5728 9.8169,25.2676 9.585,25.1411 9.585,38.9194 
	9.6104,38.9067 21.9629,45.6802 21.9629,59.3071 21.9888,59.2944 34.4043,66.1021 34.4043,66.1714 34.4668,66.1372 34.5298,66.1714 
	34.5298,66.1021 46.9268,59.3052 46.9312,59.3071 46.9312,59.3032 46.9707,59.2827 46.9312,59.2603 46.9312,45.7017 47.0332,45.646 
	46.9312,45.5903 46.9312,45.5776 "/>
<line fill="none" stroke="#A29F9A" stroke-width="0.25" stroke-miterlimit="10" x1="22.0259" y1="18.5728" x2="34.5298" y2="66.1021"/>
<line fill="none" stroke="#A29F9A" stroke-width="0.25" stroke-miterlimit="10" x1="22.0259" y1="18.5049" x2="46.9312" y2="45.5903"/>
<line fill="none" stroke="#A29F9A" stroke-width="0.25" stroke-miterlimit="10" x1="22.0259" y1="18.5049" x2="46.9707" y2="59.2817"/>
<line fill="none" stroke="#A29F9A" stroke-width="0.25" stroke-miterlimit="10" x1="46.6187" y1="18.5728" x2="46.9312" y2="44.8608"/>
<line fill="none" stroke="#A29F9A" stroke-width="0.25" stroke-miterlimit="10" x1="46.7437" y1="18.5728" x2="58.8955" y2="38.769"/>
<line fill="none" stroke="#A29F9A" stroke-width="0.25" stroke-miterlimit="10" x1="9.585" y1="25.1406" x2="58.896" y2="38.77"/>
<line fill="none" stroke="#A29F9A" stroke-width="0.25" stroke-miterlimit="10" x1="46.9312" y1="59.2603" x2="9.8169" y2="25.2681"/>
<line fill="none" stroke="#A29F9A" stroke-width="0.25" stroke-miterlimit="10" x1="9.6108" y1="38.9063" x2="59.123" y2="38.8916"/>
<line fill="none" stroke="#A29F9A" stroke-width="0.25" stroke-miterlimit="10" x1="21.9639" y1="45.6802" x2="58.2998" y2="39.3438"/>
<line fill="none" stroke="#A29F9A" stroke-width="0.25" stroke-miterlimit="10" x1="46.7437" y1="18.5728" x2="21.9644" y2="45.6812"/>
<line fill="none" stroke="#A29F9A" stroke-width="0.25" stroke-miterlimit="10" x1="46.7437" y1="18.5728" x2="21.9883" y2="59.2954"/>
<line fill="none" stroke="#A29F9A" stroke-width="0.25" stroke-miterlimit="10" x1="46.7437" y1="18.5728" x2="34.3667" y2="65.4829"/>
<line fill="none" stroke="#A29F9A" stroke-width="0.25" stroke-miterlimit="10" x1="21.9639" y1="19.042" x2="9.6108" y2="38.9067"/>
<line fill="none" stroke="#A29F9A" stroke-width="0.25" stroke-miterlimit="10" x1="34.436" y1="25.2539" x2="21.9883" y2="59.2944"/>
<line fill="none" stroke="#A29F9A" stroke-width="0.25" stroke-miterlimit="10" x1="21.9883" y1="59.2944" x2="46.1992" y2="59.2944"/>
</svg>
